<svg xmlns="http://www.w3.org/2000/svg" viewBox="0 0 76.38 76.37"><defs><style>.cls-1{fill:#453972;}.cls-2{fill:#584192;}.cls-3{fill:#fff;}.cls-4{fill:none;stroke:#1d1d1b;stroke-miterlimit:10;}</style></defs><g id="Layer_2" data-name="Layer 2"><g id="Layer_1-2" data-name="Layer 1"><path class="cls-1" d="M76,38.65V57.23A18.74,18.74,0,0,1,57.28,76h-20l-8-8a.61.61,0,0,0,.46-.25c1.25-1.29,2.56-2.54,3.8-3.84a4.27,4.27,0,0,0-.08-6c-.79-.82-1.58-1.63-2.4-2.42-.37-.34-.35-.59,0-.93,1.82-1.8,3.62-3.61,5.42-5.43.31-.31.53-.3.83,0,.65.68,1.35,1.34,2,2l3.49,3.63c1.13-1.17,2.15-2.19,3.13-3.24a4.35,4.35,0,0,0-.07-6.09c-.73-.77-1.47-1.54-2.26-2.25-.49-.45-.49-.73,0-1.19,2.78-2.75,5.54-5.52,8.3-8.28a4.33,4.33,0,0,0,.22-6.12,2.28,2.28,0,0,0-.22-.22c-.79-.82-1.61-1.62-2.41-2.42-.18-.17-.38-.32-.58-.5-.27.25-.48.44-.68.64C44.6,28.7,41,32.29,37.41,35.91c-.44.44-.71.48-1.14,0a24.41,24.41,0,0,0-2.49-2.61c-.48-.43-.52-.7,0-1.18,2.77-2.73,5.5-5.48,8.24-8.23,2.2-2.19,4.41-4.37,6.58-6.58a4.15,4.15,0,0,0,.71-5.37Z"/><path class="cls-2" d="M76,38.65,49.28,11.94a4.15,4.15,0,0,1-.73,5.37c-2.17,2.21-4.38,4.39-6.58,6.58-2.74,2.75-5.47,5.5-8.24,8.23-.49.48-.45.75,0,1.18.88.82,1.73,1.68,2.55,2.57.43.47.7.43,1.14,0,3.63-3.63,7.24-7.22,10.84-10.87.2-.2.41-.39.68-.64.2.18.4.33.58.5.8.8,1.62,1.6,2.41,2.42a4.33,4.33,0,0,1,.22,6.12l-.22.22c-2.76,2.76-5.52,5.53-8.3,8.28-.48.46-.48.74,0,1.19.79.71,1.53,1.48,2.26,2.25A4.35,4.35,0,0,1,46,51.43c-1,1-2,2.07-3.13,3.24L39.34,51c-.66-.67-1.36-1.33-2-2-.3-.31-.52-.32-.83,0-1.8,1.82-3.6,3.63-5.42,5.43-.35.34-.37.59,0,.93.82.79,1.61,1.6,2.4,2.42a4.27,4.27,0,0,1,.08,6c-1.24,1.3-2.55,2.55-3.8,3.84a.61.61,0,0,1-.46.25l8,8H18.74A18.73,18.73,0,0,1,0,57.23V18.72A18.74,18.74,0,0,1,18.74,0H57.25A18.74,18.74,0,0,1,76,18.74Z"/><path class="cls-3" d="M51.89,33.66c-2.76,2.76-5.52,5.53-8.3,8.28-.48.46-.48.74,0,1.19.79.71,1.53,1.48,2.26,2.25a4.35,4.35,0,0,1,.07,6.09c-1,1.05-2,2.07-3.13,3.24L39.3,51.08c-.66-.67-1.36-1.33-2-2-.3-.31-.52-.32-.83,0-1.8,1.82-3.6,3.63-5.42,5.43-.35.34-.37.59,0,.93.82.79,1.61,1.6,2.4,2.42a4.27,4.27,0,0,1,.08,6c-1.24,1.3-2.55,2.55-3.8,3.84a.61.61,0,0,1-.46.25.67.67,0,0,1-.43-.24C28,66.8,27.05,66,26.2,65a4.25,4.25,0,0,1-.06-6l.12-.12c1.13-1.15,2.27-2.29,3.42-3.4.41-.4.44-.69,0-1.1-.79-.72-1.53-1.48-2.27-2.25a4.34,4.34,0,0,1-.1-6.14l.1-.1c.94-1,1.89-1.92,2.87-2.85.4-.39.38-.66,0-1-2-2-3.92-3.92-5.89-5.87-2.21-2.21-2.21-4.71,0-6.9l3.16-3.18L45,8.68,45.68,8a46.31,46.31,0,0,1,3.6,3.94,4.15,4.15,0,0,1-.73,5.37c-2.17,2.21-4.38,4.39-6.58,6.58-2.74,2.75-5.47,5.5-8.24,8.23-.49.48-.45.75,0,1.18.88.82,1.73,1.68,2.55,2.57.43.47.7.43,1.14,0,3.63-3.63,7.24-7.22,10.84-10.87.2-.2.41-.39.68-.64.2.18.4.33.58.5.8.8,1.62,1.6,2.41,2.42a4.33,4.33,0,0,1,.22,6.12A3.19,3.19,0,0,1,51.89,33.66Z"/><line class="cls-4" x1="37.35" y1="76.02" x2="37.3" y2="75.97"/><line class="cls-4" x1="76.03" y1="38.69" x2="75.99" y2="38.65"/></g></g></svg>