<?xml version="1.0" encoding="utf-8"?>
<!-- Generator: Adobe Illustrator 26.2.1, SVG Export Plug-In . SVG Version: 6.00 Build 0)  -->
<svg version="1.1" id="Layer_1" xmlns="http://www.w3.org/2000/svg" xmlns:xlink="http://www.w3.org/1999/xlink" x="0px" y="0px"
	 viewBox="0 0 360 90" style="enable-background:new 0 0 360 90;" xml:space="preserve">
<style type="text/css">
	.st0{fill:#453972;}
	.st1{fill:#584192;}
	.st2{fill:#FFFFFF;}
	.st3{fill:none;stroke:#1D1D1B;stroke-miterlimit:10;}
</style>
<path class="st0" d="M100.5,45.6v18.6c0,10.3-8.4,18.8-18.7,18.8c0,0,0,0,0,0h-20l-8-8c0.2,0,0.4-0.1,0.5-0.2
	c1.2-1.3,2.6-2.5,3.8-3.8c1.6-1.7,1.6-4.4-0.1-6c-0.8-0.8-1.6-1.6-2.4-2.4c-0.4-0.3-0.3-0.6,0-0.9c1.8-1.8,3.6-3.6,5.4-5.4
	c0.3-0.3,0.5-0.3,0.8,0c0.7,0.7,1.3,1.3,2,2l3.5,3.6c1.1-1.2,2.2-2.2,3.1-3.2c1.6-1.7,1.6-4.4-0.1-6.1c-0.7-0.8-1.5-1.5-2.3-2.2
	c-0.5-0.5-0.5-0.7,0-1.2c2.8-2.8,5.5-5.5,8.3-8.3c1.8-1.6,1.8-4.4,0.2-6.1c0,0,0,0,0,0c-0.1-0.1-0.1-0.2-0.2-0.2
	c-0.8-0.8-1.6-1.6-2.4-2.4c-0.2-0.2-0.4-0.3-0.6-0.5c-0.3,0.2-0.5,0.4-0.7,0.6c-3.6,3.6-7.2,7.2-10.8,10.8c-0.4,0.4-0.7,0.5-1.1,0
	c-0.8-0.9-1.6-1.8-2.5-2.6c-0.5-0.4-0.5-0.7,0-1.2c2.8-2.7,5.5-5.5,8.2-8.2c2.2-2.2,4.4-4.4,6.6-6.6c1.5-1.4,1.8-3.7,0.7-5.4
	L100.5,45.6z"/>
<path class="st1" d="M100.5,45.6L73.8,18.9c1.1,1.7,0.8,4-0.7,5.4c-2.2,2.2-4.4,4.4-6.6,6.6c-2.7,2.7-5.5,5.5-8.2,8.2
	c-0.5,0.5-0.5,0.8,0,1.2c0.9,0.8,1.7,1.7,2.5,2.6c0.4,0.5,0.7,0.4,1.1,0c3.6-3.6,7.2-7.2,10.8-10.9c0.2-0.2,0.4-0.4,0.7-0.6
	c0.2,0.2,0.4,0.3,0.6,0.5c0.8,0.8,1.6,1.6,2.4,2.4c1.8,1.6,1.8,4.4,0.2,6.1c0,0,0,0,0,0l-0.2,0.2c-2.8,2.8-5.5,5.5-8.3,8.3
	c-0.5,0.5-0.5,0.7,0,1.2c0.8,0.7,1.5,1.5,2.3,2.2c1.7,1.7,1.7,4.4,0.1,6.1c-1,1-2,2.1-3.1,3.2L63.9,58c-0.7-0.7-1.4-1.3-2-2
	c-0.3-0.3-0.5-0.3-0.8,0c-1.8,1.8-3.6,3.6-5.4,5.4c-0.3,0.3-0.4,0.6,0,0.9c0.8,0.8,1.6,1.6,2.4,2.4c1.7,1.6,1.7,4.3,0.1,6
	c-1.2,1.3-2.5,2.6-3.8,3.8c-0.1,0.1-0.3,0.2-0.5,0.2l8,8H43.3c-10.3,0-18.7-8.3-18.7-18.6V25.7C24.5,15.4,32.9,7,43.3,7h38.5
	c10.3,0,18.7,8.4,18.7,18.7L100.5,45.6z"/>
<path class="st2" d="M76.4,40.7c-2.8,2.8-5.5,5.5-8.3,8.3c-0.5,0.5-0.5,0.7,0,1.2c0.8,0.7,1.5,1.5,2.3,2.2c1.7,1.7,1.7,4.4,0.1,6.1
	c-1,1-2,2.1-3.1,3.2l-3.5-3.6c-0.7-0.7-1.4-1.3-2-2c-0.3-0.3-0.5-0.3-0.8,0c-1.8,1.8-3.6,3.6-5.4,5.4c-0.3,0.3-0.4,0.6,0,0.9
	c0.8,0.8,1.6,1.6,2.4,2.4c1.7,1.6,1.7,4.3,0.1,6c-1.2,1.3-2.5,2.6-3.8,3.8c-0.1,0.1-0.3,0.2-0.5,0.2c-0.2,0-0.3-0.1-0.4-0.2
	c-0.9-0.9-1.8-1.7-2.6-2.7c-1.7-1.6-1.7-4.3-0.1-6l0.1-0.1c1.1-1.2,2.3-2.3,3.4-3.4c0.4-0.4,0.4-0.7,0-1.1c-0.8-0.7-1.5-1.5-2.3-2.2
	c-1.7-1.7-1.8-4.4-0.1-6.1c0,0,0,0,0,0l0.1-0.1c0.9-1,1.9-1.9,2.9-2.8c0.4-0.4,0.4-0.7,0-1c-2-2-3.9-3.9-5.9-5.9
	c-2.2-2.2-2.2-4.7,0-6.9l3.2-3.2l17.4-17.4l0.7-0.7c1.3,1.2,2.5,2.6,3.6,3.9c1.1,1.7,0.8,4-0.7,5.4c-2.2,2.2-4.4,4.4-6.6,6.6
	c-2.7,2.7-5.5,5.5-8.2,8.2c-0.5,0.5-0.5,0.8,0,1.2c0.9,0.8,1.7,1.7,2.5,2.6c0.4,0.5,0.7,0.4,1.1,0c3.6-3.6,7.2-7.2,10.8-10.9
	c0.2-0.2,0.4-0.4,0.7-0.6c0.2,0.2,0.4,0.3,0.6,0.5c0.8,0.8,1.6,1.6,2.4,2.4c1.7,1.6,1.9,4.4,0.2,6.1L76.4,40.7z"/>
<line class="st3" x1="61.9" y1="83" x2="61.8" y2="83"/>
<line class="st3" x1="100.6" y1="45.7" x2="100.5" y2="45.6"/>
<path d="M245,52.2l13.3,18.7c0.4,0.5,0.6,1.1,0.5,1.7c0,1.1-0.8,2.2-2.4,3.3c-0.8,0.6-1.8,1-2.8,1c-0.6,0-1.1-0.2-1.6-0.6
	c-0.6-0.4-1.1-0.9-1.5-1.4l-10.8-15.2c-0.8,1.1-1.6,2.3-2.6,3.6s-1.9,2.7-2.8,4s-1.9,2.7-2.8,4l-2.6,3.6c-0.7,1.2-1.9,1.9-3.3,2
	c-1,0-2-0.4-2.8-1c-0.6-0.4-1.2-1-1.7-1.5c-0.4-0.5-0.6-1.1-0.6-1.7c0-0.7,0.2-1.3,0.6-1.8l13.1-18.7c-1.9-2.8-4-5.7-6.1-8.7
	c-2.2-3-4.2-6-6.2-8.8c-0.2-0.4-0.4-0.8-0.6-1.2c-0.2-0.3-0.2-0.7-0.3-1.1c0-1.1,0.7-2.2,2.2-3.1h-0.1c0.5-0.3,1-0.5,1.5-0.7
	c0.4-0.2,0.9-0.2,1.4-0.2c1.6,0.1,3,0.9,3.7,2.3l9.9,14.1l9.9-14.1c0.8-1.3,2.2-2.2,3.7-2.3c0.5,0,0.9,0.1,1.3,0.3
	c0.4,0.2,0.9,0.4,1.4,0.7h-0.1c1.5,0.9,2.3,2,2.3,3.1c-0.1,0.8-0.4,1.6-1,2.3L245,52.2z"/>
<path d="M142.1,73c0,2.5-1.5,3.8-4.4,3.8s-4.4-1.2-4.4-3.8V36.2h-3.8c-1.9,0-2.9-1.2-3-3.7s1-3.7,3-3.7h3.8V25
	c0-1.9,0.3-3.7,0.9-5.5c0.6-1.5,1.6-2.7,3-3.4v0.1c1.3-0.8,2.7-1.5,4.2-2c1.5-0.5,3-0.7,4.6-0.7h1.9c2,0,2.9,1.2,2.9,3.7
	c0,2.5-1,3.7-2.9,3.8h-1.3c-0.8,0-1.6,0.1-2.4,0.3c-1,0.3-1.8,1.1-2,2.2c-0.1,0.6-0.2,1.2-0.2,1.7v3.7h5.8c2.1,0,3,1.2,2.9,3.7
	c0,2.5-1,3.7-2.9,3.7h-5.9L142.1,73z"/>
<path d="M166.6,73.2c0,2.5-1.4,3.7-4.4,3.7s-4.4-1.2-4.4-3.7V16.7c0-2.5,1.5-3.7,4.4-3.7c2.9,0,4.4,1.2,4.4,3.7V73.2z"/>
<path d="M215.5,63.8c0,1.9-0.3,3.8-1.1,5.6c-0.7,1.6-1.8,3-3.2,4h0.1c-1.3,0.9-2.7,1.6-4.2,2.2c-1.4,0.5-2.8,0.8-4.3,0.8h-12.7
	c-1.4,0-2.9-0.3-4.2-0.8c-1.5-0.5-2.9-1.3-4.2-2.2h0.1c-1.4-1-2.5-2.4-3.2-4c-0.7-1.8-1.1-3.7-1.1-5.6V32.1c0-2.5,1.4-3.8,4.4-3.8
	s4.4,1.3,4.4,3.8v31c0,1.4,0.3,2.7,1.1,3.9c0.7,1.3,2.1,1.9,4.3,1.9h9.8c2.1,0,3.5-0.6,4.2-1.9l-0.1,0.1c0.8-1.2,1.3-2.5,1.3-3.9
	v-31c0-2.5,1.4-3.8,4.4-3.8s4.4,1.2,4.4,3.8L215.5,63.8z"/>
<path d="M273.7,63.7c0,1.3,0.4,2.5,1.2,3.6c1,1.2,2.6,1.8,4.1,1.7h9.8c1.5,0.2,3-0.4,4.1-1.5c0.8-0.9,1.2-2.1,1.2-3.3v-0.9
	c0-2.5,1.5-3.7,4.4-3.7c2.9,0,4.4,1.2,4.4,3.7v1c0.1,1.9-0.3,3.7-1.1,5.5c-0.8,1.5-1.8,2.7-3.2,3.7c-2.4,1.9-5.3,2.9-8.4,3h-13.2
	c-3-0.1-5.8-1.1-8.1-3c-1.3-1.1-2.3-2.5-2.9-4c-0.7-1.8-1-3.7-1-5.6V41.3c0-4.3,1.3-7.4,3.9-9.5c1.3-0.9,2.6-1.7,4.1-2.2
	c1.3-0.5,2.7-0.8,4.1-0.8h13.2c1.4,0,2.8,0.3,4.2,0.8c1.5,0.5,2.9,1.2,4.3,2c1.3,1,2.3,2.2,3,3.7c0.8,1.8,1.2,3.7,1.1,5.6v10.7
	c0,1.2-0.4,2.3-1.1,3.3c-0.7,1-2,1.4-3.9,1.4h-17c-1.9,0-2.9-1.2-3-3.7c-0.1-2.5,1-3.7,3-3.7h13.4v-7.4c0-1.3-0.4-2.6-1.2-3.6
	c-1-1.2-2.6-1.8-4.1-1.6h-9.8c-1.6-0.2-3.1,0.4-4.1,1.6c-0.8,1-1.2,2.3-1.2,3.6L273.7,63.7z"/>
<path d="M321.5,73c0,2.5-1.5,3.8-4.4,3.8s-4.4-1.3-4.4-3.8V40.3c0-4.3,1.3-7.3,3.9-9c2.7-1.7,5.8-2.6,8.9-2.5h9c2,0,2.9,1.2,2.9,3.7
	s-1,3.7-2.9,3.7h-8.4c-1.9,0-3.1,0.4-3.7,1.1c-0.6,0.9-0.9,2-0.9,3.1L321.5,73z"/>
</svg>
