<svg id="Layer_1" data-name="Layer 1" xmlns="http://www.w3.org/2000/svg" viewBox="0 0 360 90"><defs><style>.cls-1{fill:#453972;}.cls-2{fill:#584192;}.cls-3{fill:#fff;}.cls-4{fill:none;stroke:#1d1d1b;stroke-miterlimit:10;}</style></defs><path class="cls-1" d="M100.51,45.64V64.22A18.74,18.74,0,0,1,81.8,83h-20l-8-8a.6.6,0,0,0,.46-.25c1.25-1.29,2.56-2.54,3.8-3.84a4.26,4.26,0,0,0-.08-6c-.79-.82-1.58-1.63-2.4-2.42-.37-.34-.35-.59,0-.93,1.82-1.8,3.62-3.61,5.42-5.43.31-.31.53-.3.83,0,.65.68,1.35,1.34,2,2l3.49,3.63c1.13-1.17,2.15-2.19,3.13-3.24a4.35,4.35,0,0,0-.07-6.09c-.73-.77-1.47-1.54-2.26-2.25-.49-.45-.49-.73,0-1.19,2.78-2.75,5.54-5.52,8.3-8.28a4.33,4.33,0,0,0,.22-6.12,2.28,2.28,0,0,0-.22-.22c-.79-.82-1.61-1.62-2.41-2.42-.18-.17-.38-.32-.58-.5-.27.25-.48.44-.68.64-3.6,3.61-7.21,7.2-10.79,10.82-.44.44-.71.48-1.14,0a24.41,24.41,0,0,0-2.49-2.61c-.48-.43-.52-.7,0-1.18,2.77-2.73,5.5-5.48,8.24-8.23,2.2-2.19,4.41-4.37,6.58-6.58a4.14,4.14,0,0,0,.71-5.37Z"/><path class="cls-2" d="M100.51,45.64,73.8,18.93a4.15,4.15,0,0,1-.73,5.37c-2.17,2.21-4.38,4.39-6.58,6.58-2.74,2.75-5.47,5.5-8.24,8.23-.49.48-.45.75,0,1.18.88.82,1.73,1.68,2.55,2.57.43.47.7.43,1.14,0,3.63-3.63,7.24-7.22,10.84-10.87.2-.2.41-.39.68-.64.2.18.4.33.58.5.8.8,1.62,1.6,2.41,2.42a4.33,4.33,0,0,1,.22,6.12l-.22.22c-2.76,2.76-5.52,5.53-8.3,8.28-.48.46-.48.74,0,1.19.79.71,1.53,1.48,2.26,2.25a4.35,4.35,0,0,1,.07,6.09c-1,1-2,2.07-3.13,3.24L63.86,58c-.66-.67-1.36-1.33-2-2-.3-.31-.52-.32-.83,0-1.8,1.82-3.6,3.63-5.42,5.43-.35.34-.37.59,0,.93.82.79,1.61,1.6,2.4,2.42a4.26,4.26,0,0,1,.08,6c-1.24,1.3-2.55,2.55-3.8,3.84a.6.6,0,0,1-.46.25l8,8H43.26A18.75,18.75,0,0,1,24.52,64.22V25.71A18.74,18.74,0,0,1,43.26,7H81.77a18.74,18.74,0,0,1,18.74,18.74Z"/><path class="cls-3" d="M76.41,40.65c-2.76,2.76-5.52,5.53-8.3,8.28-.48.46-.48.74,0,1.19.79.71,1.53,1.48,2.26,2.25a4.35,4.35,0,0,1,.07,6.09c-1,1-2,2.07-3.13,3.24l-3.49-3.63c-.66-.67-1.36-1.33-2-2-.3-.31-.52-.32-.83,0-1.8,1.82-3.6,3.63-5.42,5.43-.35.34-.37.59,0,.93.82.79,1.61,1.6,2.4,2.42a4.26,4.26,0,0,1,.08,6c-1.24,1.3-2.55,2.55-3.8,3.84a.6.6,0,0,1-.46.25.67.67,0,0,1-.43-.24C52.5,73.79,51.57,73,50.72,72a4.26,4.26,0,0,1-.06-6l.12-.12c1.14-1.15,2.28-2.29,3.42-3.4.41-.4.44-.69,0-1.1-.79-.72-1.53-1.48-2.27-2.25a4.34,4.34,0,0,1-.1-6.14l.1-.1c.94-1,1.89-1.92,2.87-2.85.4-.39.38-.66,0-1-2-2-3.92-3.92-5.89-5.87-2.21-2.21-2.21-4.71,0-6.9l3.16-3.18,17.4-17.4L70.2,15a44.71,44.71,0,0,1,3.6,3.94,4.15,4.15,0,0,1-.73,5.37c-2.17,2.21-4.38,4.39-6.58,6.58-2.74,2.75-5.47,5.5-8.24,8.23-.49.48-.45.75,0,1.18.88.82,1.73,1.68,2.55,2.57.43.47.7.43,1.14,0,3.63-3.63,7.24-7.22,10.84-10.87.2-.2.41-.39.68-.64.2.18.4.33.58.5.8.8,1.62,1.6,2.41,2.42a4.34,4.34,0,0,1,.23,6.12Z"/><line class="cls-4" x1="61.87" y1="83.01" x2="61.82" y2="82.96"/><line class="cls-4" x1="100.55" y1="45.68" x2="100.51" y2="45.64"/><path class="cls-3" d="M245,52.16l13.26,18.69a3,3,0,0,1,.55,1.74c0,1.09-.79,2.19-2.36,3.27a5.12,5.12,0,0,1-2.84,1,2.86,2.86,0,0,1-1.62-.56,6.71,6.71,0,0,1-1.54-1.42L239.61,59.69c-.79,1.09-1.64,2.31-2.56,3.63s-1.86,2.65-2.81,4-1.88,2.67-2.79,4l-2.57,3.62a4.12,4.12,0,0,1-3.28,2,4.56,4.56,0,0,1-2.84-1,8.24,8.24,0,0,1-1.69-1.54,2.54,2.54,0,0,1-.6-1.69,3,3,0,0,1,.63-1.81l13.11-18.7q-2.91-4.18-6.15-8.74c-2.18-3.05-4.2-6-6.16-8.84a10.55,10.55,0,0,1-.59-1.22,3,3,0,0,1-.27-1.09c0-1.1.73-2.19,2.18-3.08h-.07c.52-.27,1-.49,1.46-.67a3.29,3.29,0,0,1,1.35-.23,4.51,4.51,0,0,1,3.72,2.29l9.93,14.09,9.94-14.12a4.62,4.62,0,0,1,3.71-2.28,3.24,3.24,0,0,1,1.34.27c.42.19.89.4,1.42.67h-.13c1.53.94,2.3,2,2.3,3.08a4.18,4.18,0,0,1-.95,2.28Z"/><path class="cls-3" d="M142.1,73c0,2.53-1.47,3.78-4.37,3.78s-4.37-1.25-4.37-3.78V36.22h-3.79c-1.89,0-2.9-1.23-3-3.7s1-3.71,3-3.71h3.79V25a14.51,14.51,0,0,1,.91-5.46,6.61,6.61,0,0,1,3-3.44v.1a19.71,19.71,0,0,1,4.21-2,14.75,14.75,0,0,1,4.61-.71H148q2.93,0,2.92,3.71T148,21h-1.29a8.43,8.43,0,0,0-2.4.28,2.66,2.66,0,0,0-2,2.18,8.47,8.47,0,0,0-.16,1.74v3.7H148q3.08,0,2.91,3.71,0,3.7-2.91,3.71h-5.92Z"/><path class="cls-3" d="M166.64,73.22c0,2.47-1.45,3.71-4.37,3.71s-4.37-1.24-4.37-3.71V16.66q0-3.71,4.37-3.7c2.92,0,4.37,1.23,4.37,3.7Z"/><path class="cls-3" d="M215.48,63.76a13.48,13.48,0,0,1-1.09,5.6,9.92,9.92,0,0,1-3.16,4h.09a20.1,20.1,0,0,1-4.19,2.18,12.18,12.18,0,0,1-4.26.83H190.15a12,12,0,0,1-4.23-.83,19.18,19.18,0,0,1-4.22-2.18h.08a9.83,9.83,0,0,1-3.16-4,13.81,13.81,0,0,1-1.09-5.6V32.08c0-2.53,1.45-3.79,4.37-3.79s4.37,1.26,4.37,3.79V63.13A6.69,6.69,0,0,0,187.36,67q1,1.89,4.26,1.89h9.83q3.15,0,4.19-1.89l-.09.08a7,7,0,0,0,1.27-3.94v-31c0-2.54,1.44-3.79,4.36-3.79s4.37,1.25,4.37,3.79Z"/><path class="cls-3" d="M273.69,63.68a5.76,5.76,0,0,0,1.22,3.55,4.8,4.8,0,0,0,4.14,1.65h9.83A5.12,5.12,0,0,0,293,67.43a5,5,0,0,0,1.22-3.35V63.2q0-3.71,4.37-3.7c2.89,0,4.37,1.23,4.37,3.7v1a12.08,12.08,0,0,1-1.09,5.46,10.51,10.51,0,0,1-3.19,3.72,14.32,14.32,0,0,1-8.38,3H277.08a13.34,13.34,0,0,1-8.08-3,10.49,10.49,0,0,1-2.92-4,14.14,14.14,0,0,1-1-5.56V41.27q0-6.39,3.94-9.46a18.11,18.11,0,0,1,4.06-2.25,10.73,10.73,0,0,1,4.07-.83h13.25a13.58,13.58,0,0,1,4.18.75,18.65,18.65,0,0,1,4.26,2,9.55,9.55,0,0,1,2.95,3.71,12.82,12.82,0,0,1,1.09,5.6V51.45a5.26,5.26,0,0,1-1.09,3.28c-.71,1-2,1.42-3.9,1.42h-17q-2.85,0-3-3.71c-.11-2.47,1-3.71,3-3.71h13.41l0-7.37a5.74,5.74,0,0,0-1.24-3.6,4.85,4.85,0,0,0-4.14-1.61h-9.83a4.87,4.87,0,0,0-4.14,1.61,5.79,5.79,0,0,0-1.23,3.6Z"/><path class="cls-3" d="M321.49,73q0,3.78-4.36,3.78T312.69,73V40.33q0-6.48,3.87-9a15.88,15.88,0,0,1,8.91-2.52h9c1.95,0,2.92,1.23,2.92,3.71s-1,3.71-2.92,3.7H326.1c-1.89,0-3.13.37-3.7,1.1a4.81,4.81,0,0,0-.87,3.08Z"/></svg>